<svg version="1.1" preserveAspectRatio="none" xmlns="http://www.w3.org/2000/svg" width="500" height="500" viewBox="0 0 500 500"><rect width="100%" height="100%" fill="#010506" fill-opacity="1"/><svg viewBox="126.0989 46.4669 347.089 417.3758" width="346.7764853640292" height="417" x="76.6118px" y="41.5px" xmlns="http://www.w3.org/2000/svg" xmlns:xlink="http://www.w3.org/1999/xlink" preserveAspectRatio="none"><defs></defs>
              <style>.companyName {fill:#E2EDEC;fill-opacity:1;}.icon1 {fill:#E35F21;fill-opacity:1;}.icon2 {fill:#FEDFA0;fill-opacity:1;}.icon3 {fill:#FAAB05;fill-opacity:1;}.text {fill:#E2EDEC;fill-opacity:1;}</style><g opacity="1" transform="rotate(0 177.0716 441.0427)">
<svg width="245.1436" height="22.8" x="177.0716" y="441.0427" version="1.1" preserveAspectRatio="none" viewBox="3.48 -28.98 314.78 29.28">
  <g transform="matrix(1 0 0 1 0 0)" class="text"><path id="id-6izo4zJp12" d="M17.58-10.36L17.58-10.36Q17.86-9.88 18.07-9.35Q18.28-8.82 18.48-8.28L18.48-8.28Q18.68-8.84 18.90-9.35Q19.12-9.86 19.40-10.38L19.40-10.38L29.10-28Q29.36-28.46 29.64-28.56Q29.92-28.66 30.44-28.66L30.44-28.66L33.30-28.66L33.30 0L29.90 0L29.90-21.06Q29.90-21.48 29.92-21.96Q29.94-22.44 29.98-22.94L29.98-22.94L20.16-5.02Q19.66-4.12 18.76-4.12L18.76-4.12L18.20-4.12Q17.30-4.12 16.80-5.02L16.80-5.02L6.76-23Q6.82-22.48 6.85-21.98Q6.88-21.48 6.88-21.06L6.88-21.06L6.88 0L3.48 0L3.48-28.66L6.34-28.66Q6.86-28.66 7.14-28.56Q7.42-28.46 7.68-28L7.68-28L17.58-10.36Z M64.24-28.66L53.72-11.40L53.72 0L49.86 0L49.86-11.40L39.36-28.66L42.76-28.66Q43.28-28.66 43.58-28.40Q43.88-28.14 44.10-27.76L44.10-27.76L50.66-16.62Q51.06-15.92 51.33-15.30Q51.60-14.68 51.82-14.08L51.82-14.08Q52.04-14.70 52.30-15.32Q52.56-15.94 52.96-16.62L52.96-16.62L59.50-27.76Q59.68-28.08 59.99-28.37Q60.30-28.66 60.80-28.66L60.80-28.66L64.24-28.66Z M89.22-10.72L84.62-10.72L84.62 0L80.76 0L80.76-28.66L89.22-28.66Q91.94-28.66 93.95-28.03Q95.96-27.40 97.28-26.24Q98.60-25.08 99.25-23.44Q99.90-21.80 99.90-19.78L99.90-19.78Q99.90-17.78 99.20-16.12Q98.50-14.46 97.15-13.26Q95.80-12.06 93.80-11.39Q91.80-10.72 89.22-10.72L89.22-10.72ZM84.62-25.60L84.62-13.80L89.22-13.80Q90.88-13.80 92.15-14.24Q93.42-14.68 94.28-15.47Q95.14-16.26 95.58-17.36Q96.02-18.46 96.02-19.78L96.02-19.78Q96.02-22.52 94.33-24.06Q92.64-25.60 89.22-25.60L89.22-25.60L84.62-25.60Z M133.82-14.32L133.82-14.32Q133.82-11.10 132.80-8.41Q131.78-5.72 129.92-3.78Q128.06-1.84 125.45-0.77Q122.84 0.30 119.68 0.30L119.68 0.30Q116.52 0.30 113.92-0.77Q111.32-1.84 109.46-3.78Q107.60-5.72 106.58-8.41Q105.56-11.10 105.56-14.32L105.56-14.32Q105.56-17.54 106.58-20.23Q107.60-22.92 109.46-24.87Q111.32-26.82 113.92-27.90Q116.52-28.98 119.68-28.98L119.68-28.98Q122.84-28.98 125.45-27.90Q128.06-26.82 129.92-24.87Q131.78-22.92 132.80-20.23Q133.82-17.54 133.82-14.32ZM129.84-14.32L129.84-14.32Q129.84-16.96 129.12-19.06Q128.40-21.16 127.08-22.61Q125.76-24.06 123.88-24.84Q122.00-25.62 119.68-25.62L119.68-25.62Q117.38-25.62 115.50-24.84Q113.62-24.06 112.29-22.61Q110.96-21.16 110.24-19.06Q109.52-16.96 109.52-14.32L109.52-14.32Q109.52-11.68 110.24-9.59Q110.96-7.50 112.29-6.05Q113.62-4.60 115.50-3.83Q117.38-3.06 119.68-3.06L119.68-3.06Q122.00-3.06 123.88-3.83Q125.76-4.60 127.08-6.05Q128.40-7.50 129.12-9.59Q129.84-11.68 129.84-14.32Z M148.72-11.96L145.78-11.96L145.78 0L141.92 0L141.92-28.66L150.02-28.66Q152.74-28.66 154.72-28.11Q156.70-27.56 157.99-26.52Q159.28-25.48 159.90-24.01Q160.52-22.54 160.52-20.72L160.52-20.72Q160.52-19.20 160.04-17.88Q159.56-16.56 158.65-15.51Q157.74-14.46 156.43-13.72Q155.12-12.98 153.46-12.60L153.46-12.60Q154.18-12.18 154.74-11.38L154.74-11.38L163.10 0L159.66 0Q158.60 0 158.10-0.82L158.10-0.82L150.66-11.06Q150.32-11.54 149.92-11.75Q149.52-11.96 148.72-11.96L148.72-11.96ZM145.78-25.60L145.78-14.78L149.84-14.78Q151.54-14.78 152.83-15.19Q154.12-15.60 154.99-16.35Q155.86-17.10 156.30-18.14Q156.74-19.18 156.74-20.44L156.74-20.44Q156.74-23 155.05-24.30Q153.36-25.60 150.02-25.60L150.02-25.60L145.78-25.60Z M165.72-28.66L188.16-28.66L188.16-25.40L178.90-25.40L178.90 0L175.02 0L175.02-25.40L165.72-25.40L165.72-28.66Z M194.64-28.66L212.30-28.66L212.30-25.50L198.54-25.50L198.54-15.48L210.30-15.48L210.30-12.32L198.54-12.32L198.54 0L194.64 0L194.64-28.66Z M246.30-14.32L246.30-14.32Q246.30-11.10 245.28-8.41Q244.26-5.72 242.40-3.78Q240.54-1.84 237.93-0.77Q235.32 0.30 232.16 0.30L232.16 0.30Q229.00 0.30 226.40-0.77Q223.80-1.84 221.94-3.78Q220.08-5.72 219.06-8.41Q218.04-11.10 218.04-14.32L218.04-14.32Q218.04-17.54 219.06-20.23Q220.08-22.92 221.94-24.87Q223.80-26.82 226.40-27.90Q229.00-28.98 232.16-28.98L232.16-28.98Q235.32-28.98 237.93-27.90Q240.54-26.82 242.40-24.87Q244.26-22.92 245.28-20.23Q246.30-17.54 246.30-14.32ZM242.32-14.32L242.32-14.32Q242.32-16.96 241.60-19.06Q240.88-21.16 239.56-22.61Q238.24-24.06 236.36-24.84Q234.48-25.62 232.16-25.62L232.16-25.62Q229.86-25.62 227.98-24.84Q226.10-24.06 224.77-22.61Q223.44-21.16 222.72-19.06Q222.00-16.96 222.00-14.32L222.00-14.32Q222.00-11.68 222.72-9.59Q223.44-7.50 224.77-6.05Q226.10-4.60 227.98-3.83Q229.86-3.06 232.16-3.06L232.16-3.06Q234.48-3.06 236.36-3.83Q238.24-4.60 239.56-6.05Q240.88-7.50 241.60-9.59Q242.32-11.68 242.32-14.32Z M257.88-28.66L257.88-3.26L270.28-3.26L270.28 0L254 0L254-28.66L257.88-28.66Z M281.56-28.66L281.56 0L277.68 0L277.68-28.66L281.56-28.66Z M318.26-14.32L318.26-14.32Q318.26-11.10 317.24-8.41Q316.22-5.72 314.36-3.78Q312.50-1.84 309.89-0.77Q307.28 0.30 304.12 0.30L304.12 0.30Q300.96 0.30 298.36-0.77Q295.76-1.84 293.90-3.78Q292.04-5.72 291.02-8.41Q290.00-11.10 290.00-14.32L290.00-14.32Q290.00-17.54 291.02-20.23Q292.04-22.92 293.90-24.87Q295.76-26.82 298.36-27.90Q300.96-28.98 304.12-28.98L304.12-28.98Q307.28-28.98 309.89-27.90Q312.50-26.82 314.36-24.87Q316.22-22.92 317.24-20.23Q318.26-17.54 318.26-14.32ZM314.28-14.32L314.28-14.32Q314.28-16.96 313.56-19.06Q312.84-21.16 311.52-22.61Q310.20-24.06 308.32-24.84Q306.44-25.62 304.12-25.62L304.12-25.62Q301.82-25.62 299.94-24.84Q298.06-24.06 296.73-22.61Q295.40-21.16 294.68-19.06Q293.96-16.96 293.96-14.32L293.96-14.32Q293.96-11.68 294.68-9.59Q295.40-7.50 296.73-6.05Q298.06-4.60 299.94-3.83Q301.82-3.06 304.12-3.06L304.12-3.06Q306.44-3.06 308.32-3.83Q310.20-4.60 311.52-6.05Q312.84-7.50 313.56-9.59Q314.28-11.68 314.28-14.32Z"/></g>
</svg>
</g><g opacity="1" transform="rotate(0 126.0989 356.0427)">
<svg width="347.089" height="60" x="126.0989" y="356.0427" version="1.1" preserveAspectRatio="none" viewBox="1.44 -33.2 194.6 33.64">
  <g transform="matrix(1 0 0 1 0 0)" class="companyName"><path id="id-D6z1nYkh9" d="M8.88-7.72L8.88-6.36Q8.88-4.72 8.96-3.76Q9.04-2.80 9.38-2.30Q9.72-1.80 10.36-1.64Q11-1.48 12.16-1.40L12.16-1.40L12.16 0L1.52 0L1.52-1.40Q2.68-1.44 3.36-1.62Q4.04-1.80 4.40-2.28Q4.76-2.76 4.86-3.66Q4.96-4.56 4.96-6.08L4.96-6.08L4.96-10.76Q4.96-13.48 4.90-15Q4.84-16.52 4.50-17.24Q4.16-17.96 3.44-18.10Q2.72-18.24 1.44-18.24L1.44-18.24L1.44-19.64L8.44-21.16L9-16.20L9.16-16.20Q9.68-17.40 10.46-18.40Q11.24-19.40 12.16-20.10Q13.08-20.80 14.08-21.20Q15.08-21.60 16.12-21.60L16.12-21.60Q17.40-21.60 18.14-20.98Q18.88-20.36 18.88-19.32L18.88-19.32Q18.88-18.36 18.28-17.82Q17.68-17.28 16.56-17.28L16.56-17.28Q15.92-17.28 15.48-17.44Q15.04-17.60 14.70-17.78Q14.36-17.96 14.06-18.12Q13.76-18.28 13.40-18.28L13.40-18.28Q12.32-18.28 11.24-16.90Q10.16-15.52 9.56-13.40L9.56-13.40Q9.24-12.24 9.06-10.78Q8.88-9.32 8.88-7.72L8.88-7.72Z M37.60-10.88L37.60-14.80Q37.60-16.44 37.52-17.38Q37.44-18.32 37.10-18.82Q36.76-19.32 36.10-19.50Q35.44-19.68 34.28-19.80L34.28-19.80L34.28-21.20L41.52-21.20L41.52-8.92Q41.52-6.64 41.58-5.20Q41.64-3.76 41.76-3.04L41.76-3.04Q41.84-2.52 42.02-2.22Q42.20-1.92 42.56-1.74Q42.92-1.56 43.50-1.50Q44.08-1.44 45-1.44L45-1.44L45-0.04L38.40 0.44L37.96-4.36L37.80-4.36Q36.28-1.88 34.30-0.74Q32.32 0.40 30.16 0.40L30.16 0.40Q28.48 0.40 26.90-0.24Q25.32-0.88 24.52-1.96L24.52-1.96Q23.84-2.84 23.54-4.40Q23.24-5.96 23.24-8.44L23.24-8.44L23.24-14.80Q23.24-16.44 23.16-17.38Q23.08-18.32 22.74-18.82Q22.40-19.32 21.74-19.50Q21.08-19.68 19.92-19.80L19.92-19.80L19.92-21.20L27.16-21.20L27.16-10.28Q27.16-5.92 28.18-3.96Q29.20-2 31.44-2L31.44-2Q34.96-2 36.92-6.60L36.92-6.60Q37.12-7.08 37.24-7.48Q37.36-7.88 37.44-8.36Q37.52-8.84 37.56-9.44Q37.60-10.04 37.60-10.88L37.60-10.88Z M50.12-1.40L49.32 0L48.44 0L48.44-6.88L49.44-6.88Q51-1.24 55.12-1.24L55.12-1.24Q56.72-1.24 57.66-2.02Q58.60-2.80 58.60-4.40L58.60-4.40Q58.60-5 58.42-5.42Q58.24-5.84 57.74-6.30Q57.24-6.76 56.34-7.36Q55.44-7.96 53.96-8.88L53.96-8.88Q52.60-9.72 51.60-10.44Q50.60-11.16 49.92-11.90Q49.24-12.64 48.90-13.48Q48.56-14.32 48.56-15.44L48.56-15.44Q48.56-16.80 49.02-17.94Q49.48-19.08 50.28-19.88Q51.08-20.68 52.16-21.14Q53.24-21.60 54.52-21.60L54.52-21.60Q55.60-21.60 56.76-21.26Q57.92-20.92 58.80-20.36L58.80-20.36L59.60-21.20L60.36-21.20L60.36-15.44L59.32-15.44Q58.44-17.88 57.40-18.92Q56.36-19.96 54.84-19.96L54.84-19.96Q53.48-19.96 52.66-19.24Q51.84-18.52 51.84-17.24L51.84-17.24Q51.84-16.56 52.06-16.06Q52.28-15.56 52.76-15.08Q53.24-14.60 53.98-14.10Q54.72-13.60 55.76-12.96L55.76-12.96Q57.48-11.88 58.70-11.04Q59.92-10.20 60.68-9.38Q61.44-8.56 61.80-7.68Q62.16-6.80 62.16-5.68L62.16-5.68Q62.16-2.84 60.32-1.22Q58.48 0.40 55.48 0.40L55.48 0.40Q52.36 0.40 50.12-1.40L50.12-1.40Z M72.36-11.48L72.36-6.36Q72.36-4.72 72.44-3.76Q72.52-2.80 72.86-2.30Q73.20-1.80 73.84-1.64Q74.48-1.48 75.64-1.40L75.64-1.40L75.64 0L65 0L65-1.40Q66.16-1.48 66.84-1.64Q67.52-1.80 67.88-2.28Q68.24-2.76 68.34-3.66Q68.44-4.56 68.44-6.08L68.44-6.08L68.44-22.84Q68.44-25.20 68.38-26.60Q68.32-28 68.16-28.72L68.16-28.72Q68.08-29.20 67.90-29.50Q67.72-29.80 67.36-29.98Q67-30.16 66.40-30.24Q65.80-30.32 64.92-30.32L64.92-30.32L64.92-31.68L72.28-33.20L72.28-17.96L72.44-17.96Q73.04-18.76 73.94-19.42Q74.84-20.08 75.88-20.56Q76.92-21.04 78.06-21.32Q79.20-21.60 80.28-21.60L80.28-21.60Q82.12-21.60 83.66-20.96Q85.20-20.32 86.04-19.24L86.04-19.24Q86.72-18.32 87.04-16.82Q87.36-15.32 87.36-12.76L87.36-12.76L87.36-6.36Q87.36-4.72 87.44-3.78Q87.52-2.84 87.86-2.32Q88.20-1.80 88.84-1.64Q89.48-1.48 90.64-1.40L90.64-1.40L90.64 0L80.04 0L80.04-1.40Q81.16-1.44 81.84-1.62Q82.52-1.80 82.86-2.28Q83.20-2.76 83.30-3.66Q83.40-4.56 83.40-6.08L83.40-6.08L83.40-11.12Q83.40-15.60 82.36-17.50Q81.32-19.40 78.88-19.40L78.88-19.40Q77-19.40 75.46-18.44Q73.92-17.48 73.04-15.80L73.04-15.80Q72.84-15.36 72.70-14.98Q72.56-14.60 72.48-14.12Q72.40-13.64 72.38-13.02Q72.36-12.40 72.36-11.48L72.36-11.48Z M100.68-21.60L100.68-6.36Q100.68-4.80 100.82-3.86Q100.96-2.92 101.36-2.38Q101.76-1.84 102.48-1.64Q103.20-1.44 104.40-1.40L104.40-1.40L104.40 0L92.92 0L92.92-1.40Q94.12-1.44 94.88-1.66Q95.64-1.88 96.06-2.38Q96.48-2.88 96.62-3.78Q96.76-4.68 96.76-6.08L96.76-6.08L96.76-11.20Q96.76-13.52 96.70-15.02Q96.64-16.52 96.48-17.08L96.48-17.08Q96.28-18 95.56-18.34Q94.84-18.68 92.84-18.68L92.84-18.68L92.84-20.08L100.68-21.60ZM96.08-29.72L96.08-29.72Q96.08-30.76 96.80-31.48Q97.52-32.20 98.56-32.20L98.56-32.20Q99.60-32.20 100.32-31.48Q101.04-30.76 101.04-29.72L101.04-29.72Q101.04-28.68 100.32-27.96Q99.60-27.24 98.56-27.24L98.56-27.24Q97.52-27.24 96.80-27.96Q96.08-28.68 96.08-29.72Z M119.12 0L119.12-1.40Q120.44-1.40 120.94-1.52Q121.44-1.64 121.44-1.84L121.44-1.84Q121.40-2.16 120.80-3Q120.20-3.84 119.24-5L119.24-5L115-10.12L113.52-8.72L113.52-6.36Q113.52-4.80 113.66-3.86Q113.80-2.92 114.18-2.38Q114.56-1.84 115.30-1.64Q116.04-1.44 117.24-1.40L117.24-1.40L117.24 0L105.88 0L105.88-1.40Q107.08-1.44 107.82-1.64Q108.56-1.84 108.98-2.36Q109.40-2.88 109.56-3.76Q109.72-4.64 109.72-6.08L109.72-6.08L109.72-22.84Q109.72-25.88 109.66-27.44Q109.60-29 109.24-29.56L109.24-29.56Q108.88-30.12 108.04-30.22Q107.20-30.32 105.80-30.32L105.80-30.32L105.80-31.68L113.52-33.20L113.52-11.24L117.24-14.88Q119.04-16.68 119.92-17.54Q120.80-18.40 120.80-18.84L120.80-18.84Q120.80-19.28 119.96-19.54Q119.12-19.80 117.56-19.80L117.56-19.80L117.56-21.20L127.96-21.20L127.96-19.80Q127.20-19.80 126.64-19.72Q126.08-19.64 125.58-19.40Q125.08-19.16 124.52-18.74Q123.96-18.32 123.24-17.68L123.24-17.68L117.48-12.56L125.40-3.60Q125.96-2.92 126.42-2.50Q126.88-2.08 127.34-1.84Q127.80-1.60 128.34-1.50Q128.88-1.40 129.64-1.40L129.64-1.40L129.64 0L119.12 0Z M148-4.84L149.24-3.72Q145.84 0.40 140.80 0.40L140.80 0.40Q138.44 0.40 136.52-0.38Q134.60-1.16 133.22-2.58Q131.84-4 131.08-5.98Q130.32-7.96 130.32-10.36L130.32-10.36Q130.32-12.80 131.12-14.88Q131.92-16.96 133.38-18.44Q134.84-19.92 136.86-20.76Q138.88-21.60 141.28-21.60L141.28-21.60Q145.16-21.60 147.28-19.50Q149.40-17.40 149.40-13.48L149.40-13.48Q149.40-12.92 149.18-12.80Q148.96-12.68 148.16-12.68L148.16-12.68L135-12.68Q134.92-12.36 134.88-11.90Q134.84-11.44 134.84-10.88L134.84-10.88Q134.84-8.80 135.34-7.10Q135.84-5.40 136.78-4.20Q137.72-3 139.02-2.34Q140.32-1.68 141.92-1.68L141.92-1.68Q143.60-1.68 145.04-2.42Q146.48-3.16 148-4.84L148-4.84ZM135.28-14.52L142.64-14.52Q143.44-14.52 143.92-14.56Q144.40-14.60 144.64-14.72Q144.88-14.84 144.96-15.06Q145.04-15.28 145.04-15.64L145.04-15.64Q145.04-17.48 143.86-18.58Q142.68-19.68 140.64-19.68L140.64-19.68Q136.32-19.68 135.28-14.52L135.28-14.52Z M155.52-1.40L154.72 0L153.84 0L153.84-6.88L154.84-6.88Q156.40-1.24 160.52-1.24L160.52-1.24Q162.12-1.24 163.06-2.02Q164.00-2.80 164.00-4.40L164.00-4.40Q164.00-5 163.82-5.42Q163.64-5.84 163.14-6.30Q162.64-6.76 161.74-7.36Q160.84-7.96 159.36-8.88L159.36-8.88Q158.00-9.72 157.00-10.44Q156.00-11.16 155.32-11.90Q154.64-12.64 154.30-13.48Q153.96-14.32 153.96-15.44L153.96-15.44Q153.96-16.80 154.42-17.94Q154.88-19.08 155.68-19.88Q156.48-20.68 157.56-21.14Q158.64-21.60 159.92-21.60L159.92-21.60Q161.00-21.60 162.16-21.26Q163.32-20.92 164.20-20.36L164.20-20.36L165.00-21.20L165.76-21.20L165.76-15.44L164.72-15.44Q163.84-17.88 162.80-18.92Q161.76-19.96 160.24-19.96L160.24-19.96Q158.88-19.96 158.06-19.24Q157.24-18.52 157.24-17.24L157.24-17.24Q157.24-16.56 157.46-16.06Q157.68-15.56 158.16-15.08Q158.64-14.60 159.38-14.10Q160.12-13.60 161.16-12.96L161.16-12.96Q162.88-11.88 164.10-11.04Q165.32-10.20 166.08-9.38Q166.84-8.56 167.20-7.68Q167.56-6.80 167.56-5.68L167.56-5.68Q167.56-2.84 165.72-1.22Q163.88 0.40 160.88 0.40L160.88 0.40Q157.76 0.40 155.52-1.40L155.52-1.40Z M177.76-11.48L177.76-6.36Q177.76-4.72 177.84-3.76Q177.92-2.80 178.26-2.30Q178.60-1.80 179.24-1.64Q179.88-1.48 181.04-1.40L181.04-1.40L181.04 0L170.40 0L170.40-1.40Q171.56-1.48 172.24-1.64Q172.92-1.80 173.28-2.28Q173.64-2.76 173.74-3.66Q173.84-4.56 173.84-6.08L173.84-6.08L173.84-22.84Q173.84-25.20 173.78-26.60Q173.72-28 173.56-28.72L173.56-28.72Q173.48-29.20 173.30-29.50Q173.12-29.80 172.76-29.98Q172.40-30.16 171.80-30.24Q171.20-30.32 170.32-30.32L170.32-30.32L170.32-31.68L177.68-33.20L177.68-17.96L177.84-17.96Q178.44-18.76 179.34-19.42Q180.24-20.08 181.28-20.56Q182.32-21.04 183.46-21.32Q184.60-21.60 185.68-21.60L185.68-21.60Q187.52-21.60 189.06-20.96Q190.60-20.32 191.44-19.24L191.44-19.24Q192.12-18.32 192.44-16.82Q192.76-15.32 192.76-12.76L192.76-12.76L192.76-6.36Q192.76-4.72 192.84-3.78Q192.92-2.84 193.26-2.32Q193.60-1.80 194.24-1.64Q194.88-1.48 196.04-1.40L196.04-1.40L196.04 0L185.44 0L185.44-1.40Q186.56-1.44 187.24-1.62Q187.92-1.80 188.26-2.28Q188.60-2.76 188.70-3.66Q188.80-4.56 188.80-6.08L188.80-6.08L188.80-11.12Q188.80-15.60 187.76-17.50Q186.72-19.40 184.28-19.40L184.28-19.40Q182.40-19.40 180.86-18.44Q179.32-17.48 178.44-15.80L178.44-15.80Q178.24-15.36 178.10-14.98Q177.96-14.60 177.88-14.12Q177.80-13.64 177.78-13.02Q177.76-12.40 177.76-11.48L177.76-11.48Z"/></g>
</svg>
</g><g opacity="1" transform="rotate(0 126.0989 46.4669)">
<svg width="347.089" height="269.5758" x="126.0989" y="46.4669" version="1.1" preserveAspectRatio="none" viewBox="24.066999435424805 29.64699935913086 52.34099578857422 40.65200424194336">
  <g transform="matrix(1 0 0 1 0 0)" class="icon1"><polygon points="73.879,70.299 65.938,62.386 60.619,67.688 60.705,67.773 58.178,70.299 58.087,70.208 57.997,70.299   55.471,67.773 55.557,67.688 50.238,62.387 44.917,67.688 45.002,67.773 42.476,70.299 42.386,70.209 42.297,70.299 39.77,67.773   39.854,67.688 34.534,62.386 26.594,70.299 24.067,67.773 34.534,57.333 42.386,65.163 50.239,57.333 58.088,65.162 65.939,57.333   76.408,67.773 "></polygon><polygon points="73.879,56.456 65.938,48.543 60.619,53.844 60.705,53.93 58.178,56.456 58.087,56.365 57.997,56.456 55.471,53.93   55.557,53.844 50.238,48.543 44.917,53.846 45.002,53.93 42.476,56.456 42.386,56.366 42.297,56.456 39.77,53.93 39.854,53.846   34.534,48.543 26.594,56.456 24.067,53.93 34.533,43.49 42.385,51.32 50.238,43.49 58.087,51.318 65.938,43.49 76.404,53.93 "></polygon><polygon points="73.879,42.613 65.938,34.7 60.619,40 60.705,40.086 58.178,42.612 58.087,42.523 57.997,42.612 55.471,40.086   55.557,40 50.238,34.7 44.917,40.001 45.002,40.086 42.476,42.612 42.386,42.523 42.297,42.612 39.77,40.086 39.854,40.001   34.534,34.7 26.594,42.613 24.067,40.087 34.534,29.647 42.386,37.478 50.239,29.647 58.088,37.476 65.939,29.647 76.408,40.087 "></polygon></g>
</svg>
</g></svg></svg>